<svg xmlns="http://www.w3.org/2000/svg" xmlns:xlink="http://www.w3.org/1999/xlink" version="1.1" width="256" height="256" viewBox="0 0 256 256" xml:space="preserve">

<defs>
</defs>
<g style="stroke: none; stroke-width: 0; stroke-dasharray: none; stroke-linecap: butt; stroke-linejoin: miter; stroke-miterlimit: 10; fill: none; fill-rule: nonzero; opacity: 1;" transform="translate(1.4065934065934016 1.4065934065934016) scale(2.81 2.81)" >
	<path d="M 85.416 61.295 h 1.948 c 0.904 0 1.636 -0.732 1.636 -1.636 V 49.442 c 0 -0.401 -0.147 -0.788 -0.413 -1.087 L 78.397 36.894 c -0.31 -0.349 -0.755 -0.549 -1.223 -0.549 H 66.819 v 24.95 h 9.401" style="stroke: none; stroke-width: 1; stroke-dasharray: none; stroke-linecap: butt; stroke-linejoin: miter; stroke-miterlimit: 10; fill: rgb(242,105,82); fill-rule: nonzero; opacity: 1;" transform=" matrix(1 0 0 1 0 0) " stroke-linecap="round" />
	<path d="M 38.102 61.295 H 33.79 h -3.831 c -0.98 0 -1.775 -0.979 -1.775 -2.188 v -30.23 c 0 -2.506 1.648 -4.537 3.681 -4.537 h 31.272 c 2.033 0 3.681 2.031 3.681 4.537 v 8.682 v 7.948 v 15.787 H 47.291" style="stroke: none; stroke-width: 1; stroke-dasharray: none; stroke-linecap: butt; stroke-linejoin: miter; stroke-miterlimit: 10; fill: rgb(243,188,49); fill-rule: nonzero; opacity: 1;" transform=" matrix(1 0 0 1 0 0) " stroke-linecap="round" />
	<circle cx="80.818" cy="61.058" r="4.598" style="stroke: none; stroke-width: 1; stroke-dasharray: none; stroke-linecap: butt; stroke-linejoin: miter; stroke-miterlimit: 10; fill: rgb(51,74,94); fill-rule: nonzero; opacity: 1;" transform="  matrix(1 0 0 1 0 0) "/>
	<circle cx="42.688" cy="61.058" r="4.598" style="stroke: none; stroke-width: 1; stroke-dasharray: none; stroke-linecap: butt; stroke-linejoin: miter; stroke-miterlimit: 10; fill: rgb(51,74,94); fill-rule: nonzero; opacity: 1;" transform="  matrix(1 0 0 1 0 0) "/>
	<path d="M 89 48.82 H 74.619 c -0.808 0 -1.463 -0.655 -1.463 -1.463 v -5.44 c 0 -0.808 0.655 -1.463 1.463 -1.463 h 6.944" style="stroke: none; stroke-width: 1; stroke-dasharray: none; stroke-linecap: butt; stroke-linejoin: miter; stroke-miterlimit: 10; fill: rgb(216,225,236); fill-rule: nonzero; opacity: 1;" transform=" matrix(1 0 0 1 0 0) " stroke-linecap="round" />
	<polygon points="55.96,39.83 47.5,33.11 39.05,39.83 41.46,39.83 41.46,49.35 53.55,49.35 53.55,39.83 " style="stroke: none; stroke-width: 1; stroke-dasharray: none; stroke-linecap: butt; stroke-linejoin: miter; stroke-miterlimit: 10; fill: rgb(242,105,82); fill-rule: nonzero; opacity: 1;" transform="  matrix(1 0 0 1 0 0) "/>
	<line x1="0" y1="2.937999999999999" x2="0" y2="-2.937999999999999" style="stroke: none; stroke-width: 1; stroke-dasharray: none; stroke-linecap: butt; stroke-linejoin: miter; stroke-miterlimit: 10; fill: rgb(0,0,0); fill-rule: nonzero; opacity: 1;" transform=" matrix(1 0 0 1 0 0) "/>
	<path d="M 87.364 62.295 h -1.948 v -2 h 1.948 c 0.351 0 0.636 -0.285 0.636 -0.636 V 49.441 c 0 -0.155 -0.058 -0.307 -0.161 -0.424 L 77.65 37.558 c -0.121 -0.136 -0.294 -0.214 -0.476 -0.214 h -9.356 v 22.951 h 8.401 v 2 H 65.818 V 35.344 h 11.356 c 0.752 0 1.47 0.322 1.97 0.885 L 89.334 47.69 C 89.764 48.175 90 48.797 90 49.441 v 10.218 C 90 61.112 88.817 62.295 87.364 62.295 z" style="stroke: none; stroke-width: 1; stroke-dasharray: none; stroke-linecap: butt; stroke-linejoin: miter; stroke-miterlimit: 10; fill: rgb(0,0,0); fill-rule: nonzero; opacity: 1;" transform=" matrix(1 0 0 1 0 0) " stroke-linecap="round" />
	<path d="M 67.818 62.295 H 47.291 v -2 h 18.527 V 28.877 c 0 -1.95 -1.202 -3.537 -2.681 -3.537 H 31.866 c -1.479 0 -2.681 1.587 -2.681 3.537 v 30.23 c 0 0.7 0.408 1.188 0.774 1.188 h 8.143 v 2 h -8.143 c -1.53 0 -2.774 -1.43 -2.774 -3.188 v -30.23 c 0 -3.053 2.1 -5.537 4.681 -5.537 h 31.272 c 2.581 0 4.681 2.484 4.681 5.537 V 62.295 z" style="stroke: none; stroke-width: 1; stroke-dasharray: none; stroke-linecap: butt; stroke-linejoin: miter; stroke-miterlimit: 10; fill: rgb(0,0,0); fill-rule: nonzero; opacity: 1;" transform=" matrix(1 0 0 1 0 0) " stroke-linecap="round" />
	<path d="M 80.817 66.66 c -3.087 0 -5.598 -2.511 -5.598 -5.598 s 2.511 -5.599 5.598 -5.599 s 5.599 2.512 5.599 5.599 S 83.904 66.66 80.817 66.66 z M 80.817 57.464 c -1.983 0 -3.598 1.614 -3.598 3.599 c 0 1.983 1.614 3.598 3.598 3.598 c 1.984 0 3.599 -1.614 3.599 -3.598 C 84.416 59.078 82.802 57.464 80.817 57.464 z" style="stroke: none; stroke-width: 1; stroke-dasharray: none; stroke-linecap: butt; stroke-linejoin: miter; stroke-miterlimit: 10; fill: rgb(0,0,0); fill-rule: nonzero; opacity: 1;" transform=" matrix(1 0 0 1 0 0) " stroke-linecap="round" />
	<path d="M 42.693 66.66 c -3.087 0 -5.598 -2.511 -5.598 -5.598 s 2.511 -5.599 5.598 -5.599 s 5.598 2.512 5.598 5.599 S 45.78 66.66 42.693 66.66 z M 42.693 57.464 c -1.984 0 -3.598 1.614 -3.598 3.599 c 0 1.983 1.614 3.598 3.598 3.598 s 3.598 -1.614 3.598 -3.598 C 46.291 59.078 44.677 57.464 42.693 57.464 z" style="stroke: none; stroke-width: 1; stroke-dasharray: none; stroke-linecap: butt; stroke-linejoin: miter; stroke-miterlimit: 10; fill: rgb(0,0,0); fill-rule: nonzero; opacity: 1;" transform=" matrix(1 0 0 1 0 0) " stroke-linecap="round" />
	<path d="M 89 49.819 H 74.619 c -1.358 0 -2.463 -1.104 -2.463 -2.462 v -5.44 c 0 -1.358 1.104 -2.463 2.463 -2.463 h 6.944 v 2 h -6.944 c -0.255 0 -0.463 0.208 -0.463 0.463 v 5.44 c 0 0.255 0.208 0.462 0.463 0.462 H 89 V 49.819 z" style="stroke: none; stroke-width: 1; stroke-dasharray: none; stroke-linecap: butt; stroke-linejoin: miter; stroke-miterlimit: 10; fill: rgb(0,0,0); fill-rule: nonzero; opacity: 1;" transform=" matrix(1 0 0 1 0 0) " stroke-linecap="round" />
	<path d="M 21.207 52.942 H 8.615 c -0.552 0 -1 -0.447 -1 -1 s 0.448 -1 1 -1 h 12.592 c 0.552 0 1 0.447 1 1 S 21.759 52.942 21.207 52.942 z" style="stroke: none; stroke-width: 1; stroke-dasharray: none; stroke-linecap: butt; stroke-linejoin: miter; stroke-miterlimit: 10; fill: rgb(0,0,0); fill-rule: nonzero; opacity: 1;" transform=" matrix(1 0 0 1 0 0) " stroke-linecap="round" />
	<path d="M 21.207 46.031 H 4.617 c -0.552 0 -1 -0.448 -1 -1 s 0.448 -1 1 -1 h 16.59 c 0.552 0 1 0.448 1 1 S 21.759 46.031 21.207 46.031 z" style="stroke: none; stroke-width: 1; stroke-dasharray: none; stroke-linecap: butt; stroke-linejoin: miter; stroke-miterlimit: 10; fill: rgb(0,0,0); fill-rule: nonzero; opacity: 1;" transform=" matrix(1 0 0 1 0 0) " stroke-linecap="round" />
	<path d="M 21.207 39.121 H 1 c -0.552 0 -1 -0.448 -1 -1 s 0.448 -1 1 -1 h 20.207 c 0.552 0 1 0.448 1 1 S 21.759 39.121 21.207 39.121 z" style="stroke: none; stroke-width: 1; stroke-dasharray: none; stroke-linecap: butt; stroke-linejoin: miter; stroke-miterlimit: 10; fill: rgb(0,0,0); fill-rule: nonzero; opacity: 1;" transform=" matrix(1 0 0 1 0 0) " stroke-linecap="round" />
	<path d="M 53.547 50.354 h -12.09 c -0.552 0 -1 -0.447 -1 -1 v -8.525 h -1.41 c -0.425 0 -0.804 -0.269 -0.944 -0.67 c -0.14 -0.402 -0.011 -0.848 0.322 -1.113 l 8.455 -6.716 c 0.365 -0.289 0.879 -0.289 1.244 0 l 8.455 6.716 c 0.333 0.265 0.462 0.711 0.322 1.113 c -0.141 0.401 -0.519 0.67 -0.944 0.67 h -1.41 v 8.525 C 54.547 49.906 54.1 50.354 53.547 50.354 z M 42.457 48.354 h 10.09 v -8.525 c 0 -0.422 0.262 -0.783 0.632 -0.93 l -5.677 -4.509 l -5.677 4.509 c 0.37 0.146 0.631 0.508 0.631 0.93 V 48.354 z" style="stroke: none; stroke-width: 1; stroke-dasharray: none; stroke-linecap: butt; stroke-linejoin: miter; stroke-miterlimit: 10; fill: rgb(0,0,0); fill-rule: nonzero; opacity: 1;" transform=" matrix(1 0 0 1 0 0) " stroke-linecap="round" />
	<path d="M 47.502 50.354 c -0.553 0 -1 -0.447 -1 -1 v -5.876 c 0 -0.552 0.447 -1 1 -1 s 1 0.448 1 1 v 5.876 C 48.502 49.906 48.055 50.354 47.502 50.354 z" style="stroke: none; stroke-width: 1; stroke-dasharray: none; stroke-linecap: butt; stroke-linejoin: miter; stroke-miterlimit: 10; fill: rgb(0,0,0); fill-rule: nonzero; opacity: 1;" transform=" matrix(1 0 0 1 0 0) " stroke-linecap="round" />
</g>
</svg>