<svg xmlns="http://www.w3.org/2000/svg" xmlns:xlink="http://www.w3.org/1999/xlink" version="1.1" width="256" height="256" viewBox="0 0 256 256" xml:space="preserve">

<defs>
</defs>
<g style="stroke: none; stroke-width: 0; stroke-dasharray: none; stroke-linecap: butt; stroke-linejoin: miter; stroke-miterlimit: 10; fill: none; fill-rule: nonzero; opacity: 1;" transform="translate(1.4065934065934016 1.4065934065934016) scale(2.81 2.81)" >
	<circle cx="45" cy="45" r="45" style="stroke: none; stroke-width: 1; stroke-dasharray: none; stroke-linecap: butt; stroke-linejoin: miter; stroke-miterlimit: 10; fill: rgb(39,104,46); fill-rule: nonzero; opacity: 1;" transform="  matrix(1 0 0 1 0 0) "/>
	<path d="M 74.483 33.709 c -3.309 7.188 -14.294 4.47 -21.82 10.615 c -4.362 3.732 -7.038 8.361 -5.988 14.976 l 0.904 3.666 c 3.522 -9.255 12.795 -13.809 20.345 -15.006 c -11.06 5.714 -16.581 11.79 -20.49 24.155 l 2.253 0.558 c 0.629 -2.404 1.503 -4.577 2.559 -6.579 c 7.714 2.564 14.747 1.787 20.474 -4.325 C 79.837 52.934 77.471 43.346 74.483 33.709 z" style="stroke: none; stroke-width: 1; stroke-dasharray: none; stroke-linecap: butt; stroke-linejoin: miter; stroke-miterlimit: 10; fill: rgb(82,186,71); fill-rule: nonzero; opacity: 1;" transform=" matrix(1 0 0 1 0 0) " stroke-linecap="round" />
	<path d="M 37.337 44.324 c -7.526 -6.145 -18.511 -3.427 -21.82 -10.615 c -2.988 9.637 -5.354 19.225 1.762 28.06 c 5.727 6.112 12.76 6.889 20.474 4.325 c 1.055 2.002 1.93 4.175 2.559 6.579 l 2.253 -0.558 c -3.909 -12.365 -9.429 -18.442 -20.49 -24.155 c 7.55 1.198 16.823 5.752 20.345 15.006 l 0.904 -3.666 C 44.375 52.685 41.699 48.055 37.337 44.324 z" style="stroke: none; stroke-width: 1; stroke-dasharray: none; stroke-linecap: butt; stroke-linejoin: miter; stroke-miterlimit: 10; fill: rgb(82,186,71); fill-rule: nonzero; opacity: 1;" transform=" matrix(1 0 0 1 0 0) " stroke-linecap="round" />
	<path d="M 50.791 42.136 c 2.848 -2.326 5.99 -3.531 9.019 -4.375 c 0.012 -0.39 0.023 -0.781 0.013 -1.184 c -1.117 -11.288 -9.524 -16.469 -18.41 -21.249 c 2.678 7.447 -7.062 13.207 -8.123 22.865 c -0.016 0.189 -0.025 0.376 -0.038 0.564 c 1.073 0.409 2.14 0.896 3.185 1.487 c 0.929 0.526 1.841 1.132 2.72 1.85 c 0.71 0.607 1.365 1.226 1.97 1.857 c 0.594 -5.293 2.897 -10.212 5.596 -13.862 c -2.284 6.954 -3.101 12.656 -2.202 18.523 c 0.171 0.328 0.33 0.658 0.478 0.992 C 46.185 46.917 48.102 44.436 50.791 42.136 z" style="stroke: none; stroke-width: 1; stroke-dasharray: none; stroke-linecap: butt; stroke-linejoin: miter; stroke-miterlimit: 10; fill: rgb(82,186,71); fill-rule: nonzero; opacity: 1;" transform=" matrix(1 0 0 1 0 0) " stroke-linecap="round" />
</g>
</svg>